<svg fill="none" xmlns="http://www.w3.org/2000/svg">

<symbol id="icon-door">
<path fill-rule="evenodd" clip-rule="evenodd" d="M16.8966 3.02506C17.6431 2.80111 18.4316 2.75479 19.1992 2.88978C19.9669 3.02476 20.6923 3.33733 21.3176 3.80252C21.9429 4.26772 22.4509 4.87265 22.8008 5.56905C23.1508 6.26544 23.3331 7.034 23.3333 7.81339V32.1867C23.3331 32.9661 23.1508 33.7347 22.8008 34.4311C22.4509 35.1275 21.9429 35.7324 21.3176 36.1976C20.6923 36.6628 19.9669 36.9753 19.1992 37.1103C18.4316 37.2453 17.6431 37.199 16.8966 36.9751L6.89659 33.9751C5.86675 33.6661 4.96393 33.0335 4.32205 32.1709C3.68018 31.3084 3.33343 30.2619 3.33325 29.1867V10.8134C3.33343 9.73822 3.68018 8.69174 4.32205 7.8292C4.96393 6.96665 5.86675 6.33399 6.89659 6.02506L16.8966 3.02506ZM24.9999 6.66672C24.9999 6.22469 25.1755 5.80077 25.4881 5.48821C25.8006 5.17565 26.2246 5.00006 26.6666 5.00006H31.6666C32.9927 5.00006 34.2644 5.52684 35.2021 6.46452C36.1398 7.4022 36.6666 8.67397 36.6666 10.0001V11.6667C36.6666 12.1088 36.491 12.5327 36.1784 12.8452C35.8659 13.1578 35.4419 13.3334 34.9999 13.3334C34.5579 13.3334 34.134 13.1578 33.8214 12.8452C33.5088 12.5327 33.3333 12.1088 33.3333 11.6667V10.0001C33.3333 9.55803 33.1577 9.13411 32.8451 8.82154C32.5325 8.50898 32.1086 8.33339 31.6666 8.33339H26.6666C26.2246 8.33339 25.8006 8.15779 25.4881 7.84523C25.1755 7.53267 24.9999 7.10875 24.9999 6.66672ZM34.9999 26.6667C35.4419 26.6667 35.8659 26.8423 36.1784 27.1549C36.491 27.4674 36.6666 27.8914 36.6666 28.3334V30.0001C36.6666 31.3261 36.1398 32.5979 35.2021 33.5356C34.2644 34.4733 32.9927 35.0001 31.6666 35.0001H26.6666C26.2246 35.0001 25.8006 34.8245 25.4881 34.5119C25.1755 34.1993 24.9999 33.7754 24.9999 33.3334C24.9999 32.8914 25.1755 32.4674 25.4881 32.1549C25.8006 31.8423 26.2246 31.6667 26.6666 31.6667H31.6666C32.1086 31.6667 32.5325 31.4911 32.8451 31.1786C33.1577 30.866 33.3333 30.4421 33.3333 30.0001V28.3334C33.3333 27.8914 33.5088 27.4674 33.8214 27.1549C34.134 26.8423 34.5579 26.6667 34.9999 26.6667ZM14.9999 18.3334C14.5579 18.3334 14.134 18.509 13.8214 18.8215C13.5088 19.1341 13.3333 19.558 13.3333 20.0001C13.3333 20.4421 13.5088 20.866 13.8214 21.1786C14.134 21.4911 14.5579 21.6667 14.9999 21.6667H15.0016C15.4436 21.6667 15.8675 21.4911 16.1801 21.1786C16.4927 20.866 16.6683 20.4421 16.6683 20.0001C16.6683 19.558 16.4927 19.1341 16.1801 18.8215C15.8675 18.509 15.4436 18.3334 15.0016 18.3334H14.9999Z" />
<path d="M34.9998 20.0001L31.6665 23.3334M26.6665 20.0001H34.9998H26.6665ZM34.9998 20.0001L31.6665 16.6667L34.9998 20.0001Z" stroke="#3366FF" stroke-width="3.33333" stroke-linecap="round" stroke-linejoin="round"/>
</symbol>

<symbol id="icon-book">
<rect width="48" height="48.1157" rx="8" />
<path d="M34 28.7689V16.6989C34 15.4989 33.02 14.6089 31.83 14.7089H31.77C29.67 14.8889 26.48 15.9589 24.7 17.0789L24.53 17.1889C24.24 17.3689 23.76 17.3689 23.47 17.1889L23.22 17.0389C21.44 15.9289 18.26 14.8689 16.16 14.6989C14.97 14.5989 14 15.4989 14 16.6889V28.7689C14 29.7289 14.78 30.6289 15.74 30.7489L16.03 30.7889C18.2 31.0789 21.55 32.1789 23.47 33.2289L23.51 33.2489C23.78 33.3989 24.21 33.3989 24.47 33.2489C26.39 32.1889 29.75 31.0789 31.93 30.7889L32.26 30.7489C33.22 30.6289 34 29.7289 34 28.7689Z" stroke="white" stroke-width="1.5" stroke-linecap="round" stroke-linejoin="round"/>
<path d="M24 17.5189V32.5189" stroke="white" stroke-width="1.5" stroke-linecap="round" stroke-linejoin="round"/>
<path d="M19.75 20.5189H17.5" stroke="white" stroke-width="1.5" stroke-linecap="round" stroke-linejoin="round"/>
<path d="M20.5 23.5189H17.5" stroke="white" stroke-width="1.5" stroke-linecap="round" stroke-linejoin="round"/>

</symbol>

<symbol id="icon-microphone" >
<rect width="48" height="48.1157" rx="8" />
<path d="M24 31.0289C27.31 31.0289 30 28.3389 30 25.0289V20.0289C30 16.7189 27.31 14.0289 24 14.0289C20.69 14.0289 18 16.7189 18 20.0289V25.0289C18 28.3389 20.69 31.0289 24 31.0289Z" stroke="white" stroke-width="1.5" stroke-linecap="round" stroke-linejoin="round"/>
<path d="M15 23.0289V25.0289C15 29.9989 19.03 34.0289 24 34.0289C28.97 34.0289 33 29.9989 33 25.0289V23.0289" stroke="white" stroke-width="1.5" stroke-linecap="round" stroke-linejoin="round"/>
<path d="M21.1101 19.5089C22.8901 18.8589 24.8301 18.8589 26.6101 19.5089" stroke="white" stroke-width="1.5" stroke-linecap="round" stroke-linejoin="round"/>
<path d="M22.03 22.5089C23.23 22.1789 24.5 22.1789 25.7 22.5089" stroke="white" stroke-width="1.5" stroke-linecap="round" stroke-linejoin="round"/>


</symbol>
<symbol id="icon-earphone">
<path  d="M18 19.0289C16.897 19.0289 16 18.1319 16 17.0289C16 15.9259 16.897 15.0289 18 15.0289C19.103 15.0289 20 15.9259 20 17.0289C20 18.1319 19.103 19.0289 18 19.0289ZM6 15.0289C7.103 15.0289 8 15.9259 8 17.0289C8 18.1319 7.103 19.0289 6 19.0289C4.897 19.0289 4 18.1319 4 17.0289C4 15.9259 4.897 15.0289 6 15.0289ZM12 2.02893C6.486 2.02893 2 6.67893 2 12.3949V17.0289C2 19.2349 3.794 21.0289 6 21.0289C8.206 21.0289 10 19.2349 10 17.0289C10 14.8229 8.206 13.0289 6 13.0289C5.268 13.0289 4.591 13.2409 4 13.5859V12.3949C4 7.78193 7.589 4.02893 12 4.02893C16.411 4.02893 20 7.78193 20 12.3949V13.5859C19.409 13.2409 18.732 13.0289 18 13.0289C15.794 13.0289 14 14.8229 14 17.0289C14 19.2349 15.794 21.0289 18 21.0289C20.206 21.0289 22 19.2349 22 17.0289V12.3949C22 6.67893 17.514 2.02893 12 2.02893Z" stroke="white"/>
</symbol>

<symbol id="icon-utility">
<svg width="48" height="49" viewBox="0 0 48 49" fill="none" xmlns="http://www.w3.org/2000/svg">
<rect width="48" height="48.1157" rx="8" />
</svg>
</symbol>

<symbol id="icon-more" viewBox="0 0 24 24">
<path fill-rule="evenodd" clip-rule="evenodd" d="M12 7C13.104 7 14 6.104 14 5C14 3.896 13.104 3 12 3C10.896 3 10 3.896 10 5C10 6.104 10.896 7 12 7ZM12 10C10.896 10 10 10.896 10 12C10 13.104 10.896 14 12 14C13.104 14 14 13.104 14 12C14 10.896 13.104 10 12 10ZM10 19C10 17.896 10.896 17 12 17C13.104 17 14 17.896 14 19C14 20.104 13.104 21 12 21C10.896 21 10 20.104 10 19Z" />
</symbol>

<symbol id="icon-folder">
<path d="M28.0799 15.76L27.8666 15.4667C27.4933 15.0133 27.0533 14.6533 26.5466 14.3867C25.8666 14 25.0933 13.8 24.2933 13.8H7.69327C6.89327 13.8 6.13327 14 5.43994 14.3867C4.91994 14.6667 4.45327 15.0533 4.0666 15.5333C3.3066 16.5067 2.9466 17.7067 3.0666 18.9067L3.55994 25.1333C3.73327 27.0133 3.95994 29.3333 8.1866 29.3333H23.8133C28.0399 29.3333 28.2533 27.0133 28.4399 25.12L28.9333 18.92C29.0533 17.8 28.7599 16.68 28.0799 15.76ZM19.1866 23.12H12.7999C12.2799 23.12 11.8666 22.6933 11.8666 22.1867C11.8666 21.68 12.2799 21.2533 12.7999 21.2533H19.1866C19.7066 21.2533 20.1199 21.68 20.1199 22.1867C20.1199 22.7067 19.7066 23.12 19.1866 23.12Z" />
<path opacity="0.4" d="M4.50659 15.08C4.79993 14.8133 5.09326 14.5733 5.43992 14.3867C6.11992 14 6.89326 13.8 7.69326 13.8H24.3066C25.1066 13.8 25.8666 14 26.5599 14.3867C26.9066 14.5733 27.2133 14.8133 27.4933 15.0933V14.3867V13.0933C27.4933 8.33332 26.0399 6.87999 21.2799 6.87999H18.1066C17.5199 6.87999 17.5066 6.86666 17.1599 6.41332L15.5599 4.26666C14.7999 3.27999 14.1999 2.66666 12.2933 2.66666H10.7199C5.95993 2.66666 4.50659 4.11999 4.50659 8.87999V14.4V15.08Z" />
</symbol>

<symbol id="icon-arrow-left">
<path fill-rule="evenodd" clip-rule="evenodd" d="M10.5 17C10.244 17 9.98801 16.902 9.79301 16.707C9.40201 16.316 9.40201 15.684 9.79301 15.293L13.098 11.988L9.91801 8.695C9.53501 8.297 9.54601 7.664 9.94301 7.281C10.341 6.898 10.974 6.909 11.357 7.305L15.219 11.305C15.598 11.698 15.593 12.321 15.207 12.707L11.207 16.707C11.012 16.902 10.756 17 10.5 17Z" />
</symbol>

<symbol id="icon-menu">
<path fill-rule="evenodd" clip-rule="evenodd" d="M3.94824 6H20.0512C20.5732 6 21.0002 6.427 21.0002 6.949V7.051C21.0002 7.573 20.5732 8 20.0512 8H3.94824C3.42624 8 3.00024 7.573 3.00024 7.051V6.949C3.00024 6.427 3.42624 6 3.94824 6ZM20.0512 11H3.94824C3.42624 11 3.00024 11.427 3.00024 11.949V12.051C3.00024 12.573 3.42624 13 3.94824 13H20.0512C20.5732 13 21.0002 12.573 21.0002 12.051V11.949C21.0002 11.427 20.5732 11 20.0512 11ZM20.0512 16H3.94824C3.42624 16 3.00024 16.427 3.00024 16.949V17.051C3.00024 17.573 3.42624 18 3.94824 18H20.0512C20.5732 18 21.0002 17.573 21.0002 17.051V16.949C21.0002 16.427 20.5732 16 20.0512 16Z" />
</symbol>

<symbol id="icon-dollar">
<path d="M10.6 9C10.2 8.9 9.8 8.7 9.5 8.4C9.2 8.3 9.1 8 9.1 7.8C9.1 7.6 9.2 7.3 9.4 7.2C9.7 7 10 6.8 10.3 6.9C10.9 6.9 11.4 7.2 11.7 7.6L12.6 6.4C12.3 6.1 12 5.9 11.7 5.7C11.4 5.5 11 5.4 10.6 5.4V4H9.4V5.4C8.9 5.5 8.4 5.8 8 6.2C7.6 6.7 7.3 7.3 7.4 7.9C7.4 8.5 7.6 9.1 8 9.5C8.5 10 9.2 10.3 9.8 10.6C10.1 10.7 10.5 10.9 10.8 11.1C11 11.3 11.1 11.6 11.1 11.9C11.1 12.2 11 12.5 10.8 12.8C10.5 13.1 10.1 13.2 9.8 13.2C9.4 13.2 8.9 13.1 8.6 12.8C8.3 12.6 8 12.3 7.8 12L6.8 13.1C7.1 13.5 7.4 13.8 7.8 14.1C8.3 14.4 8.9 14.7 9.5 14.7V16H10.6V14.5C11.2 14.4 11.7 14.1 12.1 13.7C12.6 13.2 12.9 12.4 12.9 11.7C12.9 11.1 12.7 10.4 12.2 10C11.7 9.5 11.2 9.2 10.6 9ZM10 2C5.6 2 2 5.6 2 10C2 14.4 5.6 18 10 18C14.4 18 18 14.4 18 10C18 5.6 14.4 2 10 2ZM10 16.9C6.2 16.9 3.1 13.8 3.1 10C3.1 6.2 6.2 3.1 10 3.1C13.8 3.1 16.9 6.2 16.9 10C16.9 13.8 13.8 16.9 10 16.9Z"/>
</symbol>

<symbol id="icon-car">
<g clip-path="url(#clip0_4_386)">
<path d="M19.5308 6.875H17.1922L16.5422 5.25C15.8742 3.5793 14.2801 2.5 12.4804 2.5H7.51951C5.72029 2.5 4.12576 3.5793 3.4574 5.25L2.8074 6.875H0.469121C0.164043 6.875 -0.0597856 7.16172 0.0144331 7.45742L0.248808 8.39492C0.300761 8.60352 0.488261 8.75 0.703496 8.75H1.48748C0.962871 9.2082 0.62498 9.87422 0.62498 10.625V12.5C0.62498 13.1297 0.865605 13.698 1.24998 14.1379V16.25C1.24998 16.9402 1.80975 17.5 2.49998 17.5H3.74998C4.44021 17.5 4.99998 16.9402 4.99998 16.25V15H15V16.25C15 16.9402 15.5597 17.5 16.25 17.5H17.5C18.1902 17.5 18.75 16.9402 18.75 16.25V14.1379C19.1344 13.6984 19.375 13.1301 19.375 12.5V10.625C19.375 9.87422 19.0371 9.2082 18.5129 8.75H19.2969C19.5121 8.75 19.6996 8.60352 19.7515 8.39492L19.9859 7.45742C20.0597 7.16172 19.8359 6.875 19.5308 6.875ZM5.7785 6.17852C6.06326 5.4668 6.75271 5 7.51951 5H12.4804C13.2472 5 13.9367 5.4668 14.2215 6.17852L15 8.125H4.99998L5.7785 6.17852ZM3.74998 12.4922C2.99998 12.4922 2.49998 11.9937 2.49998 11.2461C2.49998 10.4984 2.99998 10 3.74998 10C4.49998 10 5.62498 11.1215 5.62498 11.8691C5.62498 12.6168 4.49998 12.4922 3.74998 12.4922ZM16.25 12.4922C15.5 12.4922 14.375 12.6168 14.375 11.8691C14.375 11.1215 15.5 10 16.25 10C17 10 17.5 10.4984 17.5 11.2461C17.5 11.9937 17 12.4922 16.25 12.4922Z" />
</g>
<defs>
<clipPath id="clip0_4_386">
<rect width="20" height="20" />
</clipPath>
</defs>
</symbol>

<symbol id="icon-map">
<g clip-path="url(#clip0_13_267)">
<path d="M14.6154 0C12.9162 0 11.5385 1.37923 11.5385 3.07692C11.5385 5.12692 14.2308 7.92769 14.2308 10.7454H15.0001C15.0008 7.92769 17.6924 5.20769 17.6924 3.07692C17.6924 1.37923 16.3147 0 14.6154 0ZM14.6154 1.49077C14.8238 1.49087 15.0302 1.53202 15.2227 1.61186C15.4152 1.6917 15.5901 1.80868 15.7373 1.95611C15.8846 2.10354 16.0014 2.27854 16.0811 2.47111C16.1607 2.66369 16.2017 2.87006 16.2016 3.07846C16.2015 3.28686 16.1603 3.4932 16.0805 3.68569C16.0007 3.87819 15.8837 4.05307 15.7363 4.20036C15.5888 4.34765 15.4138 4.46446 15.2213 4.54411C15.0287 4.62377 14.8223 4.66472 14.6139 4.66462C14.1929 4.66441 13.7893 4.49698 13.4917 4.19916C13.1942 3.90134 13.0272 3.49752 13.0274 3.07654C13.0276 2.65556 13.195 2.2519 13.4928 1.95437C13.7906 1.65683 14.1945 1.4898 14.6154 1.49V1.49077ZM10.0001 1.53846C4.91006 1.53846 0.769287 5.67923 0.769287 10.7692C0.769287 15.8592 4.91006 20 10.0001 20C15.0901 20 19.2308 15.8592 19.2308 10.7692C19.2308 9.22308 18.8477 7.77231 18.1731 6.49C18.0708 6.69308 17.9677 6.88615 17.8608 7.09154C17.6585 7.48231 17.4454 7.87692 17.2593 8.26923C17.4516 8.81923 17.5839 9.40077 17.6439 10H16.6347C16.5793 10.2577 16.5385 10.5 16.5385 10.7454V11.5385H17.6447C17.5403 12.6229 17.204 13.6723 16.6585 14.6154H14.4001C14.5693 13.8938 14.667 13.0962 14.7362 12.2838H13.2208C13.1491 13.0709 13.0128 13.8507 12.8131 14.6154H7.18698C6.92701 13.6086 6.77386 12.5773 6.73006 11.5385H12.6916V10.7454C12.6856 10.4942 12.6534 10.2444 12.5954 10H6.73083C6.77463 8.96116 6.92778 7.92982 7.18775 6.92308H11.2985C11.0317 6.41923 10.7828 5.90609 10.5524 5.38462H7.71621C8.35236 3.93308 9.19313 3.07692 10.0001 3.07692C10.0001 2.54231 10.0962 2.04 10.2647 1.56231C10.1762 1.55923 10.0893 1.53846 10.0001 1.53846ZM6.82698 3.77385C6.52064 4.28547 6.26309 4.82476 6.05775 5.38462H4.51929C5.18282 4.71023 5.96516 4.16415 6.82698 3.77385ZM3.34159 6.92308H5.60006C5.3674 7.93358 5.23064 8.96379 5.19159 10H2.35544C2.45946 8.91546 2.7958 7.86603 3.34159 6.92308V6.92308ZM2.35544 11.5385H5.19236C5.23775 12.6346 5.37929 13.6692 5.60083 14.6154H3.34159C2.79646 13.6721 2.46017 12.6229 2.35544 11.5385ZM4.51929 16.1538H6.05775C6.27929 16.7508 6.53852 17.2869 6.82698 17.7646C5.96516 17.3743 5.18282 16.8282 4.51929 16.1538V16.1538ZM7.71621 16.1538H12.2839C11.6477 17.6054 10.807 18.4615 10.0001 18.4615C9.19313 18.4615 8.3516 17.6054 7.71621 16.1538ZM13.9424 16.1538H15.4808C14.8173 16.8282 14.035 17.3743 13.1731 17.7646C13.4616 17.2877 13.7208 16.7515 13.9424 16.1538Z" />
</g>
<defs>
<clipPath id="clip0_13_267">
<rect width="20" height="20" />
</clipPath>
</defs>
</symbol>

<symbol id="icon-branches">
<path  d="M14.4531 3.14453C13.2461 3.14453 12.2656 4.125 12.2656 5.33203C12.2656 6.31055 12.9121 7.14062 13.7988 7.41992V9.29297L6.25 11.7656V6.21289C7.11328 5.91992 7.73438 5.10156 7.73438 4.14062C7.73438 2.93359 6.75391 1.95312 5.54688 1.95312C4.33984 1.95312 3.35938 2.93359 3.35938 4.14062C3.35938 5.10156 3.98047 5.91797 4.84375 6.21289V13.7891C3.98047 14.082 3.35938 14.9004 3.35938 15.8613C3.35938 17.0684 4.33984 18.0488 5.54688 18.0488C6.75391 18.0488 7.73438 17.0684 7.73438 15.8613C7.73438 14.9004 7.11328 14.084 6.25 13.7891V13.2461L14.5215 10.5371C14.7201 10.4725 14.8931 10.3466 15.0156 10.1774C15.1381 10.0082 15.2038 9.80457 15.2031 9.5957V7.38672C16.041 7.07812 16.6406 6.27344 16.6406 5.33203C16.6406 4.125 15.6602 3.14453 14.4531 3.14453ZM4.60938 4.14062C4.61438 3.8953 4.71536 3.66171 4.89063 3.48998C5.0659 3.31825 5.3015 3.22207 5.54688 3.22207C5.79225 3.22207 6.02785 3.31825 6.20312 3.48998C6.37839 3.66171 6.47937 3.8953 6.48438 4.14062C6.47937 4.38595 6.37839 4.61954 6.20312 4.79127C6.02785 4.963 5.79225 5.05918 5.54688 5.05918C5.3015 5.05918 5.0659 4.963 4.89063 4.79127C4.71536 4.61954 4.61438 4.38595 4.60938 4.14062ZM6.48438 15.8594C6.47937 16.1047 6.37839 16.3383 6.20312 16.51C6.02785 16.6817 5.79225 16.7779 5.54688 16.7779C5.3015 16.7779 5.0659 16.6817 4.89063 16.51C4.71536 16.3383 4.61438 16.1047 4.60938 15.8594C4.61438 15.614 4.71536 15.3805 4.89063 15.2087C5.0659 15.037 5.3015 14.9408 5.54688 14.9408C5.79225 14.9408 6.02785 15.037 6.20312 15.2087C6.37839 15.3805 6.47937 15.614 6.48438 15.8594ZM14.4531 6.26953C14.2078 6.26452 13.9742 6.16355 13.8025 5.98828C13.6308 5.81301 13.5346 5.57741 13.5346 5.33203C13.5346 5.08665 13.6308 4.85105 13.8025 4.67578C13.9742 4.50051 14.2078 4.39954 14.4531 4.39453C14.6985 4.39954 14.932 4.50051 15.1038 4.67578C15.2755 4.85105 15.3717 5.08665 15.3717 5.33203C15.3717 5.57741 15.2755 5.81301 15.1038 5.98828C14.932 6.16355 14.6985 6.26452 14.4531 6.26953Z"/>
</symbol>
<symbol id="icon-moderators">
<path d="M12.6334 11.0583C12.55 11.05 12.45 11.05 12.3584 11.0583C10.375 10.9917 8.80005 9.36667 8.80005 7.36667C8.80005 5.32501 10.45 3.66667 12.5 3.66667C14.5417 3.66667 16.2 5.32501 16.2 7.36667C16.1917 9.36667 14.6167 10.9917 12.6334 11.0583Z" />
<path d="M8.46672 14.1333C6.45006 15.4833 6.45006 17.6833 8.46672 19.025C10.7584 20.5583 14.5167 20.5583 16.8084 19.025C18.8251 17.675 18.8251 15.475 16.8084 14.1333C14.5251 12.6083 10.7667 12.6083 8.46672 14.1333Z" />
<path opacity="0.4" d="M18.6334 8.05834C18.55 8.05 18.45 8.05 18.3584 8.05834C16.375 7.99167 14.8 6.36667 14.8 4.36667C14.8 2.32501 16.45 0.666672 18.5 0.666672C20.5417 0.666672 22.2 2.32501 22.2 4.36667C22.1917 6.36667 20.6167 7.99167 18.6334 8.05834Z" />
<path opacity="0.4" d="M14.4667 11.1333C12.4501 12.4833 12.4501 14.6833 14.4667 16.025C16.7584 17.5583 20.5167 17.5583 22.8084 16.025C24.8251 14.675 24.8251 12.475 22.8084 11.1333C20.5251 9.60834 16.7667 9.60834 14.4667 11.1333Z" />
<path opacity="0.4" d="M6.63338 8.05834C6.55005 8.05 6.45005 8.05 6.35838 8.05834C4.37505 7.99167 2.80005 6.36667 2.80005 4.36667C2.80005 2.32501 4.45005 0.666672 6.50005 0.666672C8.54172 0.666672 10.2 2.32501 10.2 4.36667C10.1917 6.36667 8.61672 7.99167 6.63338 8.05834Z" />
<path opacity="0.4" d="M2.46672 11.1333C0.450057 12.4833 0.450057 14.6833 2.46672 16.025C4.75839 17.5583 8.51672 17.5583 10.8084 16.025C12.8251 14.675 12.8251 12.475 10.8084 11.1333C8.52506 9.60834 4.76672 9.60834 2.46672 11.1333Z" />
</symbol>

<symbol id="icon-settings">
<path d="M18.3334 5.41666H13.3334" stroke="white" stroke-width="1.5" stroke-miterlimit="10" stroke-linecap="round" stroke-linejoin="round"/>
<path d="M4.99996 5.41666H1.66663" stroke="white" stroke-width="1.5" stroke-miterlimit="10" stroke-linecap="round" stroke-linejoin="round"/>
<path d="M8.33329 8.33333C9.94412 8.33333 11.25 7.0275 11.25 5.41667C11.25 3.80584 9.94412 2.5 8.33329 2.5C6.72246 2.5 5.41663 3.80584 5.41663 5.41667C5.41663 7.0275 6.72246 8.33333 8.33329 8.33333Z" stroke="white" stroke-width="1.5" stroke-miterlimit="10" stroke-linecap="round" stroke-linejoin="round"/>
<path d="M18.3333 14.5833H15" stroke="white" stroke-width="1.5" stroke-miterlimit="10" stroke-linecap="round" stroke-linejoin="round"/>
<path d="M6.66663 14.5833H1.66663" stroke="white" stroke-width="1.5" stroke-miterlimit="10" stroke-linecap="round" stroke-linejoin="round"/>
<path d="M11.6667 17.5C13.2775 17.5 14.5833 16.1942 14.5833 14.5833C14.5833 12.9725 13.2775 11.6667 11.6667 11.6667C10.0558 11.6667 8.75 12.9725 8.75 14.5833C8.75 16.1942 10.0558 17.5 11.6667 17.5Z" stroke="white" stroke-width="1.5" stroke-miterlimit="10" stroke-linecap="round" stroke-linejoin="round"/>
</symbol>

<symbol id="icon-rides">
<path d="M13.3334 11.6667H14.5834V14.0167L16.6167 15.1917L15.9917 16.275L13.3334 14.7417V11.6667ZM14.1667 10C13.0616 10 12.0018 10.439 11.2204 11.2204C10.439 12.0018 10 13.0616 10 14.1667C10 15.2717 10.439 16.3316 11.2204 17.113C12.0018 17.8944 13.0616 18.3333 14.1667 18.3333C15.2718 18.3333 16.3316 17.8944 17.113 17.113C17.8944 16.3316 18.3334 15.2717 18.3334 14.1667C18.3334 13.0616 17.8944 12.0018 17.113 11.2204C16.3316 10.439 15.2718 10 14.1667 10ZM14.1667 8.33334C15.7138 8.33334 17.1975 8.94793 18.2915 10.0419C19.3855 11.1358 20 12.6196 20 14.1667C20 15.7138 19.3855 17.1975 18.2915 18.2915C17.1975 19.3854 15.7138 20 14.1667 20C11.8417 20 9.83337 18.6333 8.89171 16.6667H0.833374V14.1667C0.833374 11.95 5.27504 10.8333 7.50004 10.8333C8.00004 10.8333 8.61671 10.8917 9.26671 11C9.79527 10.1812 10.5208 9.50802 11.3768 9.04214C12.2329 8.57627 13.1921 8.33257 14.1667 8.33334ZM8.33337 14.1667C8.33337 13.5833 8.41671 13.0167 8.57504 12.5C8.22504 12.4417 7.85837 12.4167 7.50004 12.4167C5.02504 12.4167 2.41671 13.6333 2.41671 14.1667V15.0833H8.40837C8.35824 14.7804 8.33316 14.4738 8.33337 14.1667ZM7.50004 3.33334C8.3841 3.33334 9.23194 3.68453 9.85706 4.30965C10.4822 4.93478 10.8334 5.78262 10.8334 6.66668C10.8334 7.55073 10.4822 8.39858 9.85706 9.0237C9.23194 9.64882 8.3841 10 7.50004 10C6.61599 10 5.76814 9.64882 5.14302 9.0237C4.5179 8.39858 4.16671 7.55073 4.16671 6.66668C4.16671 5.78262 4.5179 4.93478 5.14302 4.30965C5.76814 3.68453 6.61599 3.33334 7.50004 3.33334ZM7.50004 4.91668C7.03591 4.91668 6.59079 5.10105 6.2626 5.42924C5.93441 5.75743 5.75004 6.20255 5.75004 6.66668C5.75004 7.13081 5.93441 7.57593 6.2626 7.90411C6.59079 8.2323 7.03591 8.41668 7.50004 8.41668C7.96417 8.41668 8.40929 8.2323 8.73748 7.90411C9.06567 7.57593 9.25004 7.13081 9.25004 6.66668C9.25004 6.20255 9.06567 5.75743 8.73748 5.42924C8.40929 5.10105 7.96417 4.91668 7.50004 4.91668Z" />
</symbol>

<symbol id="icon-clients">
<path d="M16.6029 7.95442C16.5414 7.94417 16.4697 7.94417 16.4082 7.95442C14.9941 7.90318 13.8668 6.7452 13.8668 5.31054C13.8668 3.84513 15.0453 2.66666 16.5107 2.66666C17.9761 2.66666 19.1546 3.85538 19.1546 5.31054C19.1443 6.7452 18.0171 7.90318 16.6029 7.95442Z"/>
<path d="M15.5475 14.185C16.9514 14.4207 18.4988 14.1747 19.585 13.4471C21.0299 12.4839 21.0299 10.9057 19.585 9.94247C18.4885 9.21489 16.9206 8.96894 15.5167 9.21489"/>
<path d="M6.73439 7.95442C6.79588 7.94417 6.86761 7.94417 6.9291 7.95442C8.34326 7.90318 9.4705 6.7452 9.4705 5.31054C9.4705 3.84513 8.29203 2.66666 6.82662 2.66666C5.36121 2.66666 4.18274 3.85538 4.18274 5.31054C4.19299 6.7452 5.32022 7.90318 6.73439 7.95442Z"/>
<path d="M7.78994 14.185C6.38602 14.4207 4.83863 14.1747 3.75238 13.4471C2.30747 12.4839 2.30747 10.9057 3.75238 9.94247C4.84888 9.21489 6.41676 8.96894 7.82068 9.21489"/>
<path d="M11.6841 14.3797C11.6226 14.3694 11.5509 14.3694 11.4894 14.3797C10.0752 14.3284 8.948 13.1705 8.948 11.7358C8.948 10.2704 10.1265 9.09192 11.5919 9.09192C13.0573 9.09192 14.2358 10.2806 14.2358 11.7358C14.2255 13.1705 13.0983 14.3387 11.6841 14.3797Z"/>
<path d="M8.70197 16.378C7.25706 17.3413 7.25706 18.9194 8.70197 19.8827C10.3416 20.9791 13.0265 20.9791 14.6661 19.8827C16.111 18.9194 16.111 17.3413 14.6661 16.378C13.0367 15.2917 10.3416 15.2917 8.70197 16.378Z"/>
</symbol>

<symbol id="icon-drivers">
<path fill-rule="evenodd" clip-rule="evenodd" d="M6.25 3.95833C6.25 3.77583 8.13167 2.5 10 2.5C11.8683 2.5 13.75 3.77625 13.75 3.95833C13.75 4.60833 13.6808 4.99333 13.6225 5.20292C13.5837 5.34042 13.455 5.41667 13.3121 5.41667H6.68792C6.545 5.41667 6.41625 5.34042 6.3775 5.20292C6.31917 4.99333 6.25 4.60833 6.25 3.95833ZM9.375 3.75C9.26449 3.75 9.15851 3.7939 9.08037 3.87204C9.00223 3.95018 8.95833 4.05616 8.95833 4.16667C8.95833 4.27717 9.00223 4.38315 9.08037 4.46129C9.15851 4.53943 9.26449 4.58333 9.375 4.58333H10.625C10.7355 4.58333 10.8415 4.53943 10.9196 4.46129C10.9978 4.38315 11.0417 4.27717 11.0417 4.16667C11.0417 4.05616 10.9978 3.95018 10.9196 3.87204C10.8415 3.7939 10.7355 3.75 10.625 3.75H9.375Z" />
<path fill-rule="evenodd" clip-rule="evenodd" d="M6.68253 8.0075C5.29503 7.57833 5.64503 6.81167 6.1742 6.25H13.9417C14.365 6.79083 14.5921 7.52042 13.3125 7.95708C13.3648 8.42126 13.319 8.89124 13.178 9.33656C13.037 9.78188 12.8039 10.1926 12.494 10.5421C12.184 10.8915 11.8041 11.172 11.3788 11.3652C10.9535 11.5584 10.4924 11.66 10.0253 11.6635C9.55819 11.6671 9.09557 11.5724 8.66742 11.3856C8.23926 11.1988 7.85515 10.9242 7.53997 10.5794C7.22479 10.2347 6.98559 9.82752 6.83787 9.38438C6.69016 8.94124 6.63724 8.47199 6.68253 8.00708V8.0075ZM9.8867 8.33333C10.9875 8.33333 11.8409 8.275 12.495 8.17333C12.5165 8.51305 12.4684 8.85358 12.3537 9.17405C12.2389 9.49452 12.0599 9.78818 11.8277 10.037C11.5954 10.2859 11.3148 10.4847 11.003 10.6212C10.6912 10.7578 10.3548 10.8293 10.0144 10.8312C9.67403 10.8332 9.33683 10.7656 9.02348 10.6326C8.71013 10.4997 8.42723 10.3041 8.19212 10.058C7.95702 9.81181 7.77466 9.52023 7.65623 9.2011C7.53779 8.88197 7.48577 8.54202 7.50336 8.20208C8.11295 8.28625 8.8942 8.33333 9.8867 8.33333V8.33333Z" />
<path fill-rule="evenodd" clip-rule="evenodd" d="M13.5071 14.4167C13.1302 13.8287 12.6115 13.3449 11.9986 13.01C11.3857 12.675 10.6984 12.4997 10 12.5C9.30131 12.4996 8.61372 12.675 8.00061 13.0101C7.3875 13.3452 6.86859 13.8292 6.49168 14.4175C6.3518 14.2021 6.13697 14.0462 5.88877 13.98L5.08377 13.7646C4.81695 13.6931 4.53264 13.7304 4.29338 13.8685C4.05412 14.0066 3.8795 14.234 3.80793 14.5008L3.4846 15.7083C3.44919 15.8405 3.44015 15.9783 3.45801 16.1139C3.47587 16.2496 3.52027 16.3804 3.58867 16.4988C3.65708 16.6173 3.74815 16.7211 3.8567 16.8044C3.96524 16.8877 4.08912 16.9488 4.22127 16.9842L5.02585 17.2C5.16118 17.2365 5.3025 17.2451 5.44128 17.2255C5.58005 17.2059 5.71342 17.1584 5.83335 17.0858C5.83368 17.1963 5.8779 17.3022 5.95627 17.3801C6.03465 17.458 6.14076 17.5016 6.25127 17.5012C6.36177 17.5009 6.46762 17.4567 6.54553 17.3783C6.62343 17.3 6.66701 17.1938 6.66668 17.0833V16.6667C6.66668 16.5079 6.67793 16.3517 6.69918 16.1988L8.86751 16.78C8.96817 16.9954 9.12818 17.1777 9.32877 17.3054C9.52937 17.4331 9.76223 17.5009 10 17.5009C10.2378 17.5009 10.4707 17.4331 10.6713 17.3054C10.8719 17.1777 11.0319 16.9954 11.1325 16.78L13.3008 16.1988C13.3221 16.3517 13.3333 16.5079 13.3333 16.6667V17.0833C13.3328 17.1938 13.3762 17.3 13.4539 17.3786C13.5317 17.4571 13.6374 17.5015 13.7479 17.5021C13.8584 17.5026 13.9646 17.4593 14.0432 17.3815C14.1217 17.3038 14.1661 17.198 14.1667 17.0875C14.4 17.2275 14.6883 17.2763 14.9721 17.2L15.7771 16.9846C15.9092 16.9492 16.0331 16.8881 16.1417 16.8048C16.2502 16.7216 16.3413 16.6177 16.4097 16.4992C16.4781 16.3808 16.5225 16.25 16.5404 16.1144C16.5582 15.9787 16.5492 15.8409 16.5138 15.7088L16.19 14.5013C16.1184 14.2344 15.9438 14.007 15.7046 13.8689C15.4653 13.7308 15.181 13.6935 14.9142 13.765L14.1092 13.9804C13.8615 14.0464 13.6471 14.2016 13.5071 14.4163V14.4167ZM6.91793 15.3946C7.14301 14.8502 7.50818 14.3752 7.97634 14.0177C8.44449 13.6602 8.99894 13.433 9.58335 13.3592V15.0713C9.39662 15.1375 9.22826 15.2471 9.09209 15.391C8.95592 15.5349 8.85582 15.7091 8.80002 15.8992L6.91793 15.395V15.3946ZM13.0821 15.3946C12.857 14.8503 12.4918 14.3752 12.0237 14.0177C11.5555 13.6602 11.0011 13.433 10.4167 13.3592V15.0713C10.7933 15.2046 11.0875 15.5129 11.2 15.8992L13.0821 15.395V15.3946ZM10 16.6667C10.1105 16.6667 10.2165 16.6228 10.2946 16.5446C10.3728 16.4665 10.4167 16.3605 10.4167 16.25C10.4167 16.1395 10.3728 16.0335 10.2946 15.9554C10.2165 15.8772 10.1105 15.8333 10 15.8333C9.88951 15.8333 9.78353 15.8772 9.70539 15.9554C9.62725 16.0335 9.58335 16.1395 9.58335 16.25C9.58335 16.3605 9.62725 16.4665 9.70539 16.5446C9.78353 16.6228 9.88951 16.6667 10 16.6667Z" />
</symbol>

<symbol id="icon-dashboard">
<path d="M3.33333 10.8333H8.33333C8.55435 10.8333 8.76631 10.7455 8.92259 10.5893C9.07887 10.433 9.16667 10.221 9.16667 10V3.33333C9.16667 3.11232 9.07887 2.90036 8.92259 2.74408C8.76631 2.5878 8.55435 2.5 8.33333 2.5H3.33333C3.11232 2.5 2.90036 2.5878 2.74408 2.74408C2.5878 2.90036 2.5 3.11232 2.5 3.33333V10C2.5 10.221 2.5878 10.433 2.74408 10.5893C2.90036 10.7455 3.11232 10.8333 3.33333 10.8333ZM2.5 16.6667C2.5 16.8877 2.5878 17.0996 2.74408 17.2559C2.90036 17.4122 3.11232 17.5 3.33333 17.5H8.33333C8.55435 17.5 8.76631 17.4122 8.92259 17.2559C9.07887 17.0996 9.16667 16.8877 9.16667 16.6667V13.3333C9.16667 13.1123 9.07887 12.9004 8.92259 12.7441C8.76631 12.5878 8.55435 12.5 8.33333 12.5H3.33333C3.11232 12.5 2.90036 12.5878 2.74408 12.7441C2.5878 12.9004 2.5 13.1123 2.5 13.3333V16.6667ZM10.8333 16.6667C10.8333 16.8877 10.9211 17.0996 11.0774 17.2559C11.2337 17.4122 11.4457 17.5 11.6667 17.5H16.6667C16.8877 17.5 17.0996 17.4122 17.2559 17.2559C17.4122 17.0996 17.5 16.8877 17.5 16.6667V10.8333C17.5 10.6123 17.4122 10.4004 17.2559 10.2441C17.0996 10.0878 16.8877 10 16.6667 10H11.6667C11.4457 10 11.2337 10.0878 11.0774 10.2441C10.9211 10.4004 10.8333 10.6123 10.8333 10.8333V16.6667ZM11.6667 8.33333H16.6667C16.8877 8.33333 17.0996 8.24554 17.2559 8.08926C17.4122 7.93297 17.5 7.72101 17.5 7.5V3.33333C17.5 3.11232 17.4122 2.90036 17.2559 2.74408C17.0996 2.5878 16.8877 2.5 16.6667 2.5H11.6667C11.4457 2.5 11.2337 2.5878 11.0774 2.74408C10.9211 2.90036 10.8333 3.11232 10.8333 3.33333V7.5C10.8333 7.72101 10.9211 7.93297 11.0774 8.08926C11.2337 8.24554 11.4457 8.33333 11.6667 8.33333Z"/>
</symbol>

<symbol id="icon-search">
<path d="M7.1875 13.125C10.4667 13.125 13.125 10.4667 13.125 7.1875C13.125 3.90831 10.4667 1.25 7.1875 1.25C3.90831 1.25 1.25 3.90831 1.25 7.1875C1.25 10.4667 3.90831 13.125 7.1875 13.125Z" stroke="#9DA3BB" stroke-width="1.5" stroke-linecap="round" stroke-linejoin="round"/>
<path d="M13.75 13.75L12.5 12.5" stroke="#9DA3BB" stroke-width="1.5" stroke-linecap="round" stroke-linejoin="round"/>
</symbol>

<symbol id="icon-messagge">
<path d="M8.75003 8C8.75003 7.80109 8.67102 7.61032 8.53036 7.46967C8.38971 7.32902 8.19895 7.25 8.00003 7.25C7.80112 7.25 7.61036 7.32902 7.4697 7.46967C7.32905 7.61032 7.25003 7.80109 7.25003 8C7.25003 8.19891 7.32905 8.38968 7.4697 8.53033C7.61036 8.67098 7.80112 8.75 8.00003 8.75C8.19895 8.75 8.38971 8.67098 8.53036 8.53033C8.67102 8.38968 8.75003 8.19891 8.75003 8ZM5.62503 8C5.62503 7.80109 5.54602 7.61032 5.40536 7.46967C5.26471 7.32902 5.07395 7.25 4.87503 7.25C4.67612 7.25 4.48536 7.32902 4.3447 7.46967C4.20405 7.61032 4.12503 7.80109 4.12503 8C4.12503 8.19891 4.20405 8.38968 4.3447 8.53033C4.48536 8.67098 4.67612 8.75 4.87503 8.75C5.07395 8.75 5.26471 8.67098 5.40536 8.53033C5.54602 8.38968 5.62503 8.19891 5.62503 8ZM11.875 8C11.875 7.80109 11.796 7.61032 11.6554 7.46967C11.5147 7.32902 11.3239 7.25 11.125 7.25C10.9261 7.25 10.7354 7.32902 10.5947 7.46967C10.4541 7.61032 10.375 7.80109 10.375 8C10.375 8.19891 10.4541 8.38968 10.5947 8.53033C10.7354 8.67098 10.9261 8.75 11.125 8.75C11.3239 8.75 11.5147 8.67098 11.6554 8.53033C11.796 8.38968 11.875 8.19891 11.875 8ZM1.54378 10.7125C1.89691 11.5516 2.40316 12.3047 3.04847 12.9516C3.68927 13.5947 4.44998 14.1059 5.28753 14.4562C6.14691 14.8172 7.05941 15 8.00003 15H8.03128C8.97816 14.9953 9.89535 14.8078 10.7578 14.4391C11.5882 14.0851 12.3418 13.573 12.9766 12.9313C13.6157 12.2859 14.1172 11.5359 14.4641 10.7C14.8235 9.83437 15.0047 8.91406 15 7.96719C14.9947 6.88208 14.738 5.81296 14.25 4.84375V2.46875C14.25 2.27813 14.1743 2.09531 14.0395 1.96052C13.9047 1.82573 13.7219 1.75 13.5313 1.75H11.1547C10.1855 1.26202 9.11639 1.0053 8.03128 1H7.99847C7.06253 1 6.15472 1.18125 5.30003 1.53594C4.46671 1.88211 3.70884 2.38736 3.06878 3.02344C2.42347 3.6625 1.91566 4.40938 1.56097 5.24219C1.19222 6.10469 1.00472 7.02187 1.00003 7.96875C0.995346 8.92031 1.17972 9.84375 1.54378 10.7125ZM3.90472 3.86875C5.00003 2.78437 6.45316 2.1875 8.00003 2.1875H8.0266C8.96878 2.19219 9.90472 2.42656 10.7313 2.86719L10.8625 2.9375H13.0625V5.1375L13.1328 5.26875C13.5735 6.09531 13.8078 7.03125 13.8125 7.97344C13.8188 9.53125 13.2235 10.9938 12.1313 12.0953C11.0407 13.1969 9.58285 13.8062 8.02503 13.8125H7.99847C7.21722 13.8125 6.45941 13.6609 5.74535 13.3609C5.04847 13.0688 4.42347 12.6484 3.88597 12.1109C3.35003 11.575 2.92816 10.9484 2.63597 10.2516C2.33285 9.52969 2.18128 8.76406 2.18441 7.97344C2.19378 6.41719 2.80472 4.95937 3.90472 3.86875Z"/>
</symbol>

<symbol id="icon-home">
<path d="M10 15V12.5" stroke="white" stroke-width="1.5" stroke-linecap="round" stroke-linejoin="round"/>
<path d="M8.3916 2.35004L2.6166 6.97504C1.9666 7.4917 1.54994 8.58337 1.6916 9.40004L2.79994 16.0334C2.99994 17.2167 4.13327 18.175 5.33327 18.175H14.6666C15.8583 18.175 16.9999 17.2084 17.1999 16.0334L18.3083 9.40004C18.4416 8.58337 18.0249 7.4917 17.3833 6.97504L11.6083 2.35837C10.7166 1.6417 9.27494 1.6417 8.3916 2.35004Z" stroke="white" stroke-width="1.5" stroke-linecap="round" stroke-linejoin="round"/>
</symbol>

<symbol id="icon-marker">
<path d="M15.8333 17.5L9.99996 14.1667L4.16663 17.5V4.16667C4.16663 3.72464 4.34222 3.30072 4.65478 2.98816C4.96734 2.67559 5.39127 2.5 5.83329 2.5H14.1666C14.6087 2.5 15.0326 2.67559 15.3451 2.98816C15.6577 3.30072 15.8333 3.72464 15.8333 4.16667V17.5Z" stroke="white" stroke-width="1.66667" stroke-linecap="round" stroke-linejoin="round"/>
</symbol>

<symbol id="icon-circle">
<circle cx="8" cy="8" r="8"/>
</symbol>

<symbol id="icon-camera">
<path d="M11.7894 2.57894H10.2105C10.0973 2.57894 9.99683 2.50683 9.96103 2.39895L9.79472 1.9C9.61524 1.36158 9.11368 1 8.5463 1H6.08524C5.51788 1 5.01629 1.36158 4.83735 1.89948L4.67105 2.39895C4.63473 2.50683 4.5342 2.57894 4.42106 2.57894H2.84211C1.82631 2.57894 1 3.40528 1 4.42106V9.15789C1 10.1737 1.82631 11 2.84211 11H11.7895C12.8053 11 13.6316 10.1737 13.6316 9.15789V4.42106C13.6316 3.40528 12.8053 2.57894 11.7894 2.57894ZM13.1053 9.15789C13.1053 9.88314 12.5147 10.4737 11.7895 10.4737H2.84211C2.11686 10.4737 1.52633 9.88314 1.52633 9.15789V4.42106C1.52633 3.6958 2.11686 3.10528 2.84211 3.10528H4.42106C4.76105 3.10528 5.06211 2.88844 5.16999 2.5658L5.33684 2.06579C5.44421 1.74316 5.74527 1.52631 6.08526 1.52631H8.54632C8.88631 1.52631 9.18737 1.74314 9.29526 2.06631L9.46157 2.56577C9.56945 2.88839 9.87051 3.10525 10.2105 3.10525H11.7894C12.5147 3.10525 13.1052 3.69578 13.1052 4.42103V9.15789H13.1053Z"  stroke="white" stroke-width="0.2"/>
<path d="M7.3156 3.63159C5.57403 3.63159 4.15771 5.04791 4.15771 6.78948C4.15771 8.53106 5.57403 9.94737 7.3156 9.94737C9.05718 9.94737 10.4735 8.53106 10.4735 6.78948C10.4735 5.04791 9.05718 3.63159 7.3156 3.63159ZM7.3156 9.42106C5.86455 9.42106 4.68402 8.24053 4.68402 6.78948C4.68402 5.33843 5.86455 4.1579 7.3156 4.1579C8.76665 4.1579 9.94719 5.33843 9.94719 6.78948C9.94719 8.24053 8.76665 9.42106 7.3156 9.42106Z"  stroke="white" stroke-width="0.2"/>
<path d="M7.3157 4.6842C6.15466 4.6842 5.21045 5.62841 5.21045 6.78946C5.21045 6.93472 5.32835 7.05262 5.47361 7.05262C5.61888 7.05262 5.73676 6.93472 5.73676 6.78946C5.73676 5.91894 6.44518 5.21051 7.3157 5.21051C7.46096 5.21051 7.57887 5.09261 7.57887 4.94734C7.57887 4.80208 7.46096 4.6842 7.3157 4.6842Z"  stroke="white" stroke-width="0.2"/>
</symbol>

<symbol id="icon-edit">
<path d="M8.16699 1.20947H6.50033C2.33366 1.20947 0.666992 2.87614 0.666992 7.04281V12.0428C0.666992 16.2095 2.33366 17.8761 6.50033 17.8761H11.5003C15.667 17.8761 17.3337 16.2095 17.3337 12.0428V10.3761" stroke="#5F66E9" stroke-linecap="round" stroke-linejoin="round"/>
<path d="M12.3671 2.05936L5.80039 8.62602C5.55039 8.87602 5.30039 9.36769 5.25039 9.72602L4.89205 12.2344C4.75872 13.1427 5.40039 13.776 6.30872 13.651L8.81705 13.2927C9.16705 13.2427 9.65872 12.9927 9.91705 12.7427L16.4837 6.17602C17.6171 5.04269 18.1504 3.72602 16.4837 2.05936C14.8171 0.392691 13.5004 0.926024 12.3671 2.05936Z" stroke="#5F66E9" stroke-miterlimit="10" stroke-linecap="round" stroke-linejoin="round"/>
<path d="M11.4253 3.00098C11.9836 4.99264 13.542 6.55098 15.542 7.11764" stroke="#5F66E9" stroke-miterlimit="10" stroke-linecap="round" stroke-linejoin="round"/>
</symbol>

<symbol id="icon-trash">
<path d="M8.18767 5.81438e-09C8.87965 -4.53024e-05 9.54543 0.264707 10.0484 0.739946C10.5514 1.21518 10.8535 1.86488 10.8926 2.55576L10.8968 2.70914H15.2731C15.4315 2.70918 15.584 2.76936 15.6997 2.8775C15.8155 2.98563 15.8858 3.13368 15.8966 3.29171C15.9074 3.44974 15.8578 3.60598 15.7579 3.72885C15.6579 3.85173 15.515 3.93208 15.3581 3.95367L15.2731 3.95951H14.6096L13.5426 14.8127C13.4891 15.3538 13.2451 15.8583 12.854 16.236C12.463 16.6138 11.9504 16.8403 11.4078 16.875L11.2611 16.88H5.11426C4.57031 16.88 4.0441 16.6865 3.62966 16.3342C3.21521 15.982 2.93955 15.4938 2.85192 14.9569L2.83275 14.8119L1.76493 3.95951H1.10224C0.95116 3.9595 0.805196 3.90479 0.691339 3.80549C0.577481 3.70619 0.503432 3.56902 0.482886 3.41935L0.477051 3.33432C0.477057 3.18324 0.531769 3.03728 0.631069 2.92342C0.730369 2.80957 0.867538 2.73552 1.01721 2.71497L1.10224 2.70914H5.47853C5.47853 1.99063 5.76396 1.30155 6.27202 0.793487C6.78008 0.285426 7.46916 5.81438e-09 8.18767 5.81438e-09ZM13.3534 3.95951H3.02114L4.07728 14.6894C4.10067 14.9288 4.20617 15.1527 4.37589 15.3232C4.54561 15.4937 4.76908 15.6002 5.00839 15.6246L5.11426 15.6296H11.2611C11.7612 15.6296 12.1855 15.2754 12.2822 14.7944L12.2989 14.6894L13.3525 3.95951H13.3534ZM9.64643 6.25185C9.79751 6.25186 9.94347 6.30657 10.0573 6.40587C10.1712 6.50517 10.2452 6.64234 10.2658 6.79201L10.2716 6.87704V12.7121C10.2716 12.8705 10.2114 13.023 10.1033 13.1387C9.99512 13.2545 9.84708 13.3248 9.68905 13.3356C9.53101 13.3464 9.37478 13.2968 9.2519 13.1969C9.12903 13.0969 9.04867 12.954 9.02708 12.7971L9.02125 12.7121V6.87704C9.02125 6.71123 9.08712 6.55221 9.20436 6.43496C9.32161 6.31772 9.48062 6.25185 9.64643 6.25185ZM6.7289 6.25185C6.87998 6.25186 7.02594 6.30657 7.1398 6.40587C7.25366 6.50517 7.32771 6.64234 7.34825 6.79201L7.35409 6.87704V12.7121C7.35404 12.8705 7.29387 13.023 7.18573 13.1387C7.07759 13.2545 6.92955 13.3248 6.77152 13.3356C6.61348 13.3464 6.45725 13.2968 6.33437 13.1969C6.21149 13.0969 6.13114 12.954 6.10955 12.7971L6.10372 12.7121V6.87704C6.10372 6.71123 6.16959 6.55221 6.28683 6.43496C6.40408 6.31772 6.56309 6.25185 6.7289 6.25185ZM8.18767 1.25037C7.82157 1.25038 7.46886 1.38805 7.19955 1.63605C6.93024 1.88405 6.76403 2.22424 6.7339 2.5891L6.7289 2.70914H9.64643C9.64643 2.32225 9.49274 1.9512 9.21917 1.67763C8.9456 1.40406 8.57456 1.25037 8.18767 1.25037Z" fill="#5F66E9"/>
</symbol>

</svg>
